<?xml version="1.0" encoding="utf-8"?>
<svg xmlns="http://www.w3.org/2000/svg" version="1.1" width="1024px" height="600px" style="shape-rendering:geometricPrecision; text-rendering:geometricPrecision; image-rendering:optimizeQuality; fill-rule:evenodd; clip-rule:evenodd" xmlns:bx="https://boxy-svg.com" viewBox="0 0 1024 600"><defs><bx:export><bx:file format="svg" excluded="true"/><bx:file format="svg" path="Untitled 2.svg" excluded="true"/><bx:file format="svg" path="Untitled 12.svg"/><bx:file format="svg" href="#object-0" path="Untitled 3.svg" excluded="true"/><bx:file format="svg" href="#object-1" path="Untitled 4.svg" excluded="true"/><bx:file format="svg" href="#object-2" path="Untitled 5.svg" excluded="true"/><bx:file format="svg" href="#object-3" path="Untitled 6.svg" excluded="true"/><bx:file format="svg" href="#object-4" path="Untitled 7.svg" excluded="true"/><bx:file format="svg" href="#object-5" path="Untitled 8.svg" excluded="true"/><bx:file format="svg" href="#object-6" path="Untitled 9.svg" excluded="true"/><bx:file format="svg" href="#object-7" path="Untitled 10.svg" excluded="true"/><bx:file format="svg" href="#object-8" path="Untitled 11.svg" excluded="true"/><bx:file format="svg" href="#object-12" path="Untitled 15.svg" excluded="true"/><bx:file format="svg" href="#object-13" path="Untitled 16.svg" excluded="true"/><bx:file format="svg" href="#object-14" path="Untitled 17.svg" excluded="true"/><bx:file format="svg" href="#object-15" path="Untitled 18.svg" excluded="true"/><bx:file format="svg" href="#object-16" path="Untitled 19.svg" excluded="true"/><bx:file format="svg" href="#object-17" path="Untitled 20.svg" excluded="true"/></bx:export></defs><g id="object-0"><path style="opacity: 1; fill: rgb(65, 46, 94);" d="M 819.5,309.5 C 848.883,363.032 863.216,420.365 862.5,481.5C 861.524,471.333 860.691,461 860,450.5C 859.667,452.167 859.333,453.833 859,455.5C 858.781,454.062 858.281,452.729 857.5,451.5C 856.5,452.833 855.5,452.833 854.5,451.5C 852.583,445.031 851.25,444.864 850.5,451C 852.615,451.424 853.448,452.591 853,454.5C 852.667,454.167 852.333,453.833 852,453.5C 851.632,454.91 850.799,455.91 849.5,456.5C 849.251,455.418 849.085,454.085 849,452.5C 848.027,454.392 847.36,456.392 847,458.5C 845.792,453.755 843.959,453.422 841.5,457.5C 842.167,458.167 842.833,458.833 843.5,459.5C 842.282,459.109 841.448,459.776 841,461.5C 840.667,460.167 840.333,458.833 840,457.5C 839.667,464.167 839.333,470.833 839,477.5C 837.535,482.187 834.702,484.52 830.5,484.5C 834.176,482.989 836.676,480.323 838,476.5C 835.245,371.156 792.745,285.99 710.5,221C 628.686,162.968 538.353,143.634 439.5,163C 333.908,188.698 257.741,250.531 211,348.5C 192.764,389.585 184.097,432.585 185,477.5C 186.666,479.996 188.5,482.329 190.5,484.5C 191.167,485.167 191.833,485.833 192.5,486.5C 193.321,487.51 195.654,488.01 199.5,488C 199.833,489.667 200.167,491.333 200.5,493C 199.5,493.333 198.5,493.667 197.5,494C 198.576,495.726 198.743,497.559 198,499.5C 196.992,499.018 195.825,498.852 194.5,499C 195.451,498.282 195.617,497.449 195,496.5C 193.184,497.329 191.351,498.163 189.5,499C 187.963,500.11 187.297,501.61 187.5,503.5C 184.891,503.83 183.224,505.33 182.5,508C 185.424,508.988 188.424,509.654 191.5,510C 190.207,510.49 188.873,510.657 187.5,510.5C 172.815,507.314 163.982,498.314 161,483.5C 158.813,425.919 170.979,371.586 197.5,320.5C 197.5,320.167 197.5,319.833 197.5,319.5C 236.466,246.867 293.466,193.534 368.5,159.5C 392.333,149.999 416.666,142.332 441.5,136.5C 478.991,130.097 516.658,128.931 554.5,133C 671.599,149.491 759.932,208.324 819.5,309.5 Z"/></g><g id="object-1"><path style="opacity:1" fill="#f59f35" d="M 641.5,211.5 C 623.85,249.469 606.183,287.469 588.5,325.5C 543.559,304.422 497.559,301.922 450.5,318C 444.593,320.789 438.593,323.289 432.5,325.5C 416.008,287.511 398.675,249.845 380.5,212.5C 422.088,191.732 466.255,182.066 513,183.5C 558.051,182.943 600.885,192.276 641.5,211.5 Z"/></g><g id="object-2"><path style="opacity:1" fill="#5f924c" d="M 380.5,212.5 C 398.675,249.845 416.008,287.511 432.5,325.5C 381.342,354.074 350.509,397.407 340,455.5C 338.833,459.333 336.333,461.833 332.5,463C 293.804,463.815 255.138,463.649 216.5,462.5C 212.688,459.075 211.021,454.741 211.5,449.5C 212.56,434.259 215.06,419.259 219,404.5C 244.089,316.25 297.923,252.25 380.5,212.5 Z"/></g><g id="object-3"><path style="opacity:1" fill="#eb5b44" d="M 641.5,211.5 C 699.345,238.345 743.678,279.678 774.5,335.5C 783.634,354.027 791.634,372.36 798.5,390.5C 806.629,411.658 810.463,433.658 810,456.5C 808.878,458.624 807.378,460.457 805.5,462C 766.584,463.654 727.584,463.988 688.5,463C 685.667,461.5 683.5,459.333 682,456.5C 677.637,428.127 667.47,402.127 651.5,378.5C 669.745,355.415 688.578,332.748 708,310.5C 713.003,293.945 707.17,287.445 690.5,291C 668,310.002 645.667,329.169 623.5,348.5C 612.726,339.604 601.059,331.937 588.5,325.5C 606.183,287.469 623.85,249.469 641.5,211.5 Z"/></g><g id="object-4"><path style="opacity:1" fill="#eb3e23" d="M 774.5,335.5 C 784.925,352.693 792.925,371.026 798.5,390.5C 791.634,372.36 783.634,354.027 774.5,335.5 Z"/></g><g id="object-5"><path style="opacity:1" fill="#030020" d="M 190.5,484.5 C 262.138,485.49 333.804,485.824 405.5,485.5C 405.5,485.833 405.5,486.167 405.5,486.5C 334.5,486.5 263.5,486.5 192.5,486.5C 191.833,485.833 191.167,485.167 190.5,484.5 Z"/></g><g id="object-6"><path style="opacity:1" fill="#040020" d="M 612.5,480.5 C 614.296,481.793 615.963,483.293 617.5,485C 687.833,485.5 758.166,485.667 828.5,485.5C 758.571,486.5 687.904,486.833 616.5,486.5C 615.04,484.537 613.373,482.704 611.5,481C 611.728,480.601 612.062,480.435 612.5,480.5 Z"/></g><g id="object-7"><path style="opacity:1" fill="#412e5d" d="M 862.5,481.5 C 859.537,498.127 849.871,508.127 833.5,511.5C 830.833,511.5 828.167,511.5 825.5,511.5C 760.335,510.667 695.001,510.167 629.5,510C 629.957,509.586 630.291,509.086 630.5,508.5C 628.907,504.615 627.24,500.782 625.5,497C 629.003,496.462 629.836,494.962 628,492.5C 626.667,496.5 625.333,496.5 624,492.5C 623.667,493.833 623.333,495.167 623,496.5C 622.282,497.451 621.449,497.617 620.5,497C 622.851,493.948 623.018,490.781 621,487.5C 620.167,488.5 619.333,489.5 618.5,490.5C 618.655,489.164 617.988,487.831 616.5,486.5C 687.904,486.833 758.571,486.5 828.5,485.5C 828.842,484.662 829.508,484.328 830.5,484.5C 834.702,484.52 837.535,482.187 839,477.5C 839.333,470.833 839.667,464.167 840,457.5C 840.333,458.833 840.667,460.167 841,461.5C 841.448,459.776 842.282,459.109 843.5,459.5C 842.833,458.833 842.167,458.167 841.5,457.5C 843.959,453.422 845.792,453.755 847,458.5C 847.36,456.392 848.027,454.392 849,452.5C 849.085,454.085 849.251,455.418 849.5,456.5C 850.799,455.91 851.632,454.91 852,453.5C 852.333,453.833 852.667,454.167 853,454.5C 853.448,452.591 852.615,451.424 850.5,451C 851.25,444.864 852.583,445.031 854.5,451.5C 855.5,452.833 856.5,452.833 857.5,451.5C 858.281,452.729 858.781,454.062 859,455.5C 859.333,453.833 859.667,452.167 860,450.5C 860.691,461 861.524,471.333 862.5,481.5 Z"/></g><g id="object-8"><path style="opacity: 1; fill: rgb(65, 46, 94);" d="M 192.5,486.5 C 263.5,486.5 334.5,486.5 405.5,486.5C 402.973,490.679 399.64,494.179 395.5,497C 390.812,496.014 390.478,496.848 394.5,499.5C 395.833,500.833 395.833,502.167 394.5,503.5C 397.131,505.005 396.797,505.671 393.5,505.5C 393.5,507.167 393.5,508.833 393.5,510.5C 326.331,510.168 259.331,510.501 192.5,511.5C 190.833,511.5 189.167,511.5 187.5,511.5C 187.5,511.167 187.5,510.833 187.5,510.5C 188.873,510.657 190.207,510.49 191.5,510C 188.424,509.654 185.424,508.988 182.5,508C 183.224,505.33 184.891,503.83 187.5,503.5C 187.297,501.61 187.963,500.11 189.5,499C 191.351,498.163 193.184,497.329 195,496.5C 195.617,497.449 195.451,498.282 194.5,499C 195.825,498.852 196.992,499.018 198,499.5C 198.743,497.559 198.576,495.726 197.5,494C 198.5,493.667 199.5,493.333 200.5,493C 200.167,491.333 199.833,489.667 199.5,488C 195.654,488.01 193.321,487.51 192.5,486.5 Z"/></g><g id="object-12"><path style="opacity:1" fill="#392856" d="M 651.5,378.5 C 631.865,400.975 612.365,423.641 593,446.5C 594.82,454.7 594.987,463.033 593.5,471.5C 600.786,472.645 607.119,475.645 612.5,480.5C 612.062,480.435 611.728,480.601 611.5,481C 613.373,482.704 615.04,484.537 616.5,486.5C 617.988,487.831 618.655,489.164 618.5,490.5C 619.333,489.5 620.167,488.5 621,487.5C 623.018,490.781 622.851,493.948 620.5,497C 621.449,497.617 622.282,497.451 623,496.5C 623.333,495.167 623.667,493.833 624,492.5C 625.333,496.5 626.667,496.5 628,492.5C 629.836,494.962 629.003,496.462 625.5,497C 627.24,500.782 628.907,504.615 630.5,508.5C 630.291,509.086 629.957,509.586 629.5,510C 695.001,510.167 760.335,510.667 825.5,511.5C 760.5,511.5 695.5,511.5 630.5,511.5C 630.64,517.536 630.307,523.536 629.5,529.5C 628.209,530.542 628.209,531.708 629.5,533C 656.227,546.479 665.06,567.645 656,596.5C 652.096,606.231 645.596,613.565 636.5,618.5C 631.35,620.828 626.017,622.661 620.5,624C 546.999,624.167 473.666,624.667 400.5,625.5C 389.36,622.691 380.36,616.691 373.5,607.5C 357.898,582.869 360.564,560.369 381.5,540C 385.241,537.268 389.241,534.934 393.5,533C 394.171,532.014 394.171,530.847 393.5,529.5C 394.807,523.266 394.807,516.932 393.5,510.5C 393.5,508.833 393.5,507.167 393.5,505.5C 396.797,505.671 397.131,505.005 394.5,503.5C 395.833,502.167 395.833,500.833 394.5,499.5C 390.478,496.848 390.812,496.014 395.5,497C 399.64,494.179 402.973,490.679 405.5,486.5C 405.5,486.167 405.5,485.833 405.5,485.5C 412.165,478.494 420.165,473.494 429.5,470.5C 426.714,461.118 426.881,451.785 430,442.5C 438.823,422.987 453.99,412.154 475.5,410C 483.241,406.525 487.241,400.525 487.5,392C 486.577,386.476 485.577,380.976 484.5,375.5C 483.945,369.225 486.778,365.892 493,365.5C 497.278,366.111 501.445,367.111 505.5,368.5C 527.949,374.636 543.115,388.636 551,410.5C 575.064,389.594 599.231,368.927 623.5,348.5C 645.667,329.169 668,310.002 690.5,291C 707.17,287.445 713.003,293.945 708,310.5C 688.578,332.748 669.745,355.415 651.5,378.5 Z"/></g><g id="object-13"><path style="opacity:1" fill="#8265a5" d="M 505.5,388.5 C 520.615,393.117 530.115,403.117 534,418.5C 534.273,423.229 534.939,427.896 536,432.5C 537.663,434.917 539.829,436.75 542.5,438C 549.978,438.592 557.311,439.925 564.5,442C 579.162,450.292 581.329,461.125 571,474.5C 569.435,480.201 571.268,484.367 576.5,487C 597.79,487.135 609.79,497.635 612.5,518.5C 612.084,525.823 610.084,532.656 606.5,539C 606.518,543.347 608.518,546.347 612.5,548C 635.389,551.61 644.555,564.777 640,587.5C 636.102,597.064 629.269,603.564 619.5,607C 547.5,607.667 475.5,607.667 403.5,607C 382.521,597.735 376.687,582.568 386,561.5C 392.339,552.914 400.839,548.414 411.5,548C 415.319,545.526 416.819,542.026 416,537.5C 405.117,516.151 410.283,499.985 431.5,489C 437.167,488 442.833,487 448.5,486C 449.931,485.535 451.097,484.701 452,483.5C 452.667,480.5 452.667,477.5 452,474.5C 441.672,458.917 443.838,445.417 458.5,434C 467.13,431.335 475.797,428.668 484.5,426C 498.872,417.767 505.872,405.267 505.5,388.5 Z"/></g><g id="object-14"><path style="opacity:1" fill="#382654" d="M 501.5,538.5 C 523.031,536.016 539.198,544.016 550,562.5C 550.816,571.017 546.983,574.851 538.5,574C 533.854,569.023 528.854,564.356 523.5,560C 507.613,553.611 495.613,557.945 487.5,573C 481.376,577.043 476.542,575.876 473,569.5C 472.333,566.833 472.333,564.167 473,561.5C 479.693,550.302 489.193,542.636 501.5,538.5 Z"/></g><g id="object-15"><path style="opacity:1" fill="#382654" d="M 473.5,504.5 C 487.003,505.482 491.17,512.149 486,524.5C 478.182,530.608 471.515,529.608 466,521.5C 463.66,513.525 466.16,507.858 473.5,504.5 Z"/></g><g id="object-16"><path style="opacity:1" fill="#382654" d="M 542.5,504.5 C 554.328,504.163 559.161,509.83 557,521.5C 552.324,528.792 546.158,530.292 538.5,526C 532.222,517.383 533.555,510.217 542.5,504.5 Z"/></g><g id="object-17"><path style="opacity:1" fill="#281548" d="M 636.5,618.5 C 633.68,621.081 630.346,622.914 626.5,624C 623.009,624.738 619.675,625.571 616.5,626.5C 544.459,626.827 472.459,626.494 400.5,625.5C 473.666,624.667 546.999,624.167 620.5,624C 626.017,622.661 631.35,620.828 636.5,618.5 Z"/></g></svg>
