<svg version="1.2" xmlns="http://www.w3.org/2000/svg" viewBox="0 0 716 510" width="716" height="510"><style>.a{fill:#FFFFFF}.b{fill:#f59f35}.c{fill:#5f924c}.d{fill:#eb5b44}.e{fill:#eb3e23}.f{fill:#FFFFFF}.g{fill:#FFFFFF}.h{fill:#FFFFFF}.i{fill:#FFFFFF}.j{fill:#8265a5}.k{fill:#FFFFFF}.l{fill:#FFFFFF}</style><path fill-rule="evenodd" class="a" d="m665.4 187.5q44.1 80.3 43 172-1.4-15.3-2.5-31-0.5 2.5-1 5-0.3-2.2-1.5-4-1.5 2-3 0-2.8-9.7-4-0.5 3.2 0.6 2.5 3.5-0.5-0.5-1-1-0.5 2.1-2.5 3-0.3-1.6-0.5-4-1.4 2.8-2 6-1.8-7.1-5.5-1 1 1 2 2-1.8-0.6-2.5 2-0.5-2-1-4-0.5 10-1 20-2.2 7-8.5 7 5.5-2.3 7.5-8-4.1-158-127.5-255.5-122.7-87-271-58-158.4 38.5-228.5 185.5-27.3 61.6-26 129 2.5 3.7 5.5 7 1 1 2 2 1.3 1.5 7 1.5 0.5 2.5 1 5-1.5 0.5-3 1 1.6 2.6 0.5 5.5-1.5-0.7-3.5-0.5 1.5-1.1 0.5-2.5-2.7 1.2-5.5 2.5-2.3 1.7-2 4.5-3.9 0.5-5 4.5 4.4 1.5 9 2-1.9 0.7-4 0.5-22-4.8-26.5-27-3.2-86.4 36.5-163 0-0.5 0-1 58.5-108.9 171-160 35.8-14.3 73-23 56.3-9.6 113-3.5 175.7 24.7 265 176.5z"/><path fill-rule="evenodd" class="b" d="m487.4 89.5q-26.4 57-53 114-67.4-31.6-138-7.5-8.8 4.2-18 7.5-24.7-57-52-113 62.4-31.2 132.5-29 67.6-0.8 128.5 28z"/><path fill-rule="evenodd" class="c" d="m226.4 90.5q27.3 56 52 113-76.7 42.9-92.5 130-1.7 5.7-7.5 7.5-58 1.2-116-0.5-5.7-5.1-5-13 1.6-22.9 7.5-45 37.7-132.4 161.5-192z"/><path fill-rule="evenodd" class="d" d="m487.4 89.5q86.8 40.3 133 124 13.7 27.8 24 55 12.2 31.7 11.5 66-1.7 3.2-4.5 5.5-58.3 2.5-117 1-4.2-2.3-6.5-6.5-6.5-42.6-30.5-78 27.4-34.6 56.5-68 7.5-24.8-17.5-19.5-33.7 28.5-67 57.5-16.1-13.3-35-23 26.6-57 53-114z"/><path fill-rule="evenodd" class="e" d="m620.4 213.5q15.7 25.8 24 55-10.3-27.2-24-55z"/><path fill-rule="evenodd" class="f" d="m36.4 362.5q107.5 1.5 215 1 0 0.5 0 1-106.5 0-213 0-1-1-2-2z"/><path fill-rule="evenodd" class="g" d="m458.4 358.5q2.7 1.9 5 4.5 105.5 0.8 211 0.5-104.9 1.5-212 1-2.2-2.9-5-5.5 0.4-0.6 1-0.5z"/><path fill-rule="evenodd" class="h" d="m708.4 359.5q-4.4 24.9-29 30-4 0-8 0-97.7-1.2-196-1.5 0.7-0.6 1-1.5-2.4-5.8-5-11.5 5.3-0.8 2.5-4.5-2 6-4 0-0.5 2-1 4-1 1.4-2.5 0.5 3.6-4.6 0.5-9.5-1.2 1.5-2.5 3 0.3-2-2-4 107.1 0.5 212-1 0.5-1.3 2-1 6.3 0 8.5-7 0.5-10 1-20 0.5 2 1 4 0.7-2.6 2.5-2-1-1-2-2 3.7-6.1 5.5 1 0.6-3.2 2-6 0.2 2.4 0.5 4 2-0.9 2.5-3 0.5 0.5 1 1 0.7-2.9-2.5-3.5 1.2-9.2 4 0.5 1.5 2 3 0 1.2 1.8 1.5 4 0.5-2.5 1-5 1.1 15.7 2.5 31z"/><path fill-rule="evenodd" class="a" d="m38.4 364.5q106.5 0 213 0-3.8 6.3-10 10.5-7-1.5-1 2.5 2 2 0 4 4 2.3-1 2 0 2.5 0 5-100.7-0.5-201 1-2.5 0-5 0 0-0.5 0-1 2.1 0.2 4-0.5-4.6-0.5-9-2 1.1-4 5-4.5-0.3-2.8 2-4.5 2.8-1.3 5.5-2.5 1 1.4-0.5 2.5 2-0.2 3.5 0.5 1.1-2.9-0.5-5.5 1.5-0.5 3-1-0.5-2.5-1-5-5.7 0-7-1.5z"/><path fill-rule="evenodd" class="i" d="m497.4 256.5q-29.4 33.7-58.5 68 2.8 12.3 0.5 25 11 1.7 19 9-0.6-0.1-1 0.5 2.8 2.6 5 5.5 2.3 2 2 4 1.3-1.5 2.5-3 3.1 4.9-0.5 9.5 1.5 0.9 2.5-0.5 0.5-2 1-4 2 6 4 0 2.8 3.7-2.5 4.5 2.6 5.7 5 11.5-0.3 0.9-1 1.5 98.3 0.3 196 1.5-97.5 0-195 0 0.2 9.1-1 18-1.9 1.6 0 3.5 40.1 20.2 26.5 63.5-5.8 14.6-19.5 22-7.7 3.5-16 5.5-110.2 0.3-220 1.5-16.7-4.2-27-18-23.4-36.9 8-67.5 5.6-4.1 12-7 1-1.5 0-3.5 2-9.4 0-19 0-2.5 0-5 5 0.3 1-2 2-2 0-4-6-4 1-2.5 6.2-4.2 10-10.5 0-0.5 0-1 10-10.5 24-15-4.1-14.1 0.5-28 13.3-29.3 45.5-32.5 11.6-5.2 12-18-1.4-8.3-3-16.5-0.8-9.4 8.5-10 6.4 0.9 12.5 3 33.7 9.2 45.5 42 36.1-31.4 72.5-62 33.3-29 67-57.5 25-5.3 17.5 19.5-29.1 33.4-56.5 68z"/><path fill-rule="evenodd" class="j" d="m351.4 266.5q22.7 6.9 28.5 30 0.4 7.1 2 14 2.5 3.6 6.5 5.5 11.2 0.9 22 4 22 12.4 6.5 32.5-2.3 8.6 5.5 12.5 32 0.2 36 31.5-0.6 11-6 20.5 0.1 6.5 6 9 34.4 5.4 27.5 39.5-5.8 14.3-20.5 19.5-108 1-216 0-31.4-13.9-17.5-45.5 9.5-12.9 25.5-13.5 5.8-3.7 4.5-10.5-16.3-32 15.5-48.5 8.5-1.5 17-3 2.2-0.7 3.5-2.5 1-4.5 0-9-15.5-23.4 6.5-40.5 13-4 26-8 21.6-12.3 21-37.5z"/><path fill-rule="evenodd" class="k" d="m347.4 416.5q32.3-3.7 48.5 24 1.3 12.8-11.5 11.5-6.9-7.5-15-14-23.8-9.6-36 13-9.2 6.1-14.5-3.5-1-4 0-8 10.1-16.8 28.5-23z"/><path fill-rule="evenodd" class="k" d="m319.4 382.5q20.3 1.5 12.5 20-11.7 9.2-20-3-3.5-12 7.5-17z"/><path fill-rule="evenodd" class="k" d="m388.4 382.5q17.8-0.5 14.5 17-7 10.9-18.5 4.5-9.4-12.9 4-21.5z"/><path fill-rule="evenodd" class="l" d="m482.4 496.5q-4.2 3.9-10 5.5-5.2 1.1-10 2.5-108 0.5-216-1 109.8-1.2 220-1.5 8.3-2 16-5.5z"/></svg>
